<svg width="24" height="24" viewBox="0 0 24 24" fill="none" xmlns="http://www.w3.org/2000/svg">
<rect width="24" height="24" rx="6" fill="#F0017E"/>
<g clip-path="url(#clip0_915_36160)">
<path d="M17.2294 8.15283L17.3376 8.15345C18.6244 8.16689 18.9934 8.73503 18.9733 9.96185C18.963 10.6046 18.9755 11.2681 18.9554 11.9155L18.9052 11.9139C18.6604 11.9069 17.7407 11.9033 17.6409 12.1C17.3573 12.6591 17.5146 13.7695 17.4797 14.3885C17.4272 15.3175 18.2995 15.2153 18.9371 15.1912C18.9396 15.2688 18.9412 15.3463 18.942 15.4239C18.9484 16.1801 19.0036 17.3059 18.8943 18.0255C18.7279 19.1201 17.1863 18.968 16.3328 18.9564C15.7461 18.9482 15.1593 18.9438 14.5724 18.9433L8.24211 18.9693C6.31276 18.9652 4.89946 19.3493 5.01607 16.8147C5.02101 16.7073 5.01241 16.5571 5.01145 16.4454L4.9961 12.0032C4.99592 11.6333 5.00403 11.2235 5.0015 10.8582C4.9844 8.38235 5.12855 8.15604 7.51726 8.15655L9.66024 8.15774L17.2294 8.15283ZM11.0402 16.5171C11.8266 16.4277 12.4648 16.164 12.9655 15.5244C13.9889 14.2171 13.8627 11.9877 12.5261 10.9334C11.9645 10.4905 11.1343 10.2863 10.4272 10.3797C10.1129 10.4343 9.88131 10.487 9.58748 10.6133C7.47783 11.5207 7.22371 14.7192 9.06992 16.0264C9.57664 16.3852 10.4219 16.6138 11.0402 16.5171ZM14.7411 14.8668C14.9325 14.8641 15.4453 14.9129 15.5578 14.8166L15.5605 14.6806C15.5839 13.5206 15.706 12.3402 15.7317 11.1767C15.7361 10.9824 15.7483 10.7525 15.7736 10.5607C15.3675 10.5618 14.9613 10.5595 14.5551 10.5537C14.5862 11.4213 14.622 12.2887 14.6628 13.1559C14.6889 13.6613 14.7486 14.3766 14.7411 14.8668ZM14.6516 16.3344C14.9811 16.3302 15.3105 16.3305 15.64 16.3355C15.6835 16.2657 15.6407 15.5213 15.6471 15.3417C15.4527 15.3421 14.8407 15.354 14.6757 15.333C14.6114 15.4425 14.6475 16.1542 14.6516 16.3344Z" fill="white"/>
<path d="M10.5486 11.3738C12.333 11.1435 13.1711 13.328 12.3236 14.6758C11.9645 15.2468 11.5752 15.3977 10.9408 15.5455C10.5124 15.5831 10.0838 15.4764 9.72307 15.2422C8.38025 14.3746 8.59265 11.9807 10.1516 11.4708C10.2828 11.4278 10.4135 11.4009 10.5486 11.3738Z" fill="white"/>
<path d="M15.865 5.06468C17.2112 4.90128 16.9531 6.68987 16.9474 7.56679L8.90226 7.56132C8.52956 7.56249 8.04381 7.58169 7.69141 7.48831C8.41824 7.1831 9.89939 6.79404 10.7128 6.56096C12.4167 6.07271 14.1599 5.53141 15.865 5.06468Z" fill="white"/>
<path d="M18.3821 12.2516C18.6145 12.2489 18.7707 12.291 18.9855 12.3637C19.2368 12.7185 19.192 13.2624 19.1989 13.6802C19.2071 14.1756 19.2197 14.693 18.6551 14.8362C18.056 14.8065 17.8532 14.7806 17.8358 14.1005C17.8227 13.5818 17.7561 12.9778 17.9313 12.485C17.9839 12.337 18.2485 12.2803 18.3821 12.2516Z" fill="white"/>
<path d="M17.7266 14.7258L17.7771 14.6992C17.8773 14.8136 18.0492 14.9326 18.2038 14.9458L18.2323 15.0107C18.0296 15.0182 17.7916 14.9348 17.7266 14.7258Z" fill="#0D070D" fill-opacity="0.0117647"/>
</g>
<defs>
<clipPath id="clip0_915_36160">
<rect width="14" height="14" fill="white" transform="translate(5 5)"/>
</clipPath>
</defs>
</svg>
